<?xml version="1.0" encoding="UTF-8" standalone="no"?>
<!DOCTYPE svg PUBLIC "-//W3C//DTD SVG 1.0//EN"
 "http://www.w3.org/TR/2001/REC-SVG-20010904/DTD/svg10.dtd" [
 <!ATTLIST svg xmlns:xlink CDATA #FIXED "http://www.w3.org/1999/xlink">
]>
<!-- Generated by Graphviz version 2.14.1 (Fri Sep  7 12:14:00 UTC 2007)
     For user: (bryan) Bryan Cole,,01223 435386,01954 204782 -->
<!-- Title: G Pages: 1 -->
<svg width="2465pt" height="692pt"
 viewBox="0.00 0.00 2465.00 692.00" xmlns="http://www.w3.org/2000/svg" xmlns:xlink="../external.html?link=http://www.w3.org/1999/xlink">
<g id="graph0" class="graph" transform="scale(1 1) rotate(0) translate(4 688)">
<title>G</title>
<polygon style="fill:white;stroke:white;" points="-4,4 -4,-688 2461,-688 2461,4 -4,4"/>
<!-- PlotComponent -->
<g id="node1" class="node"><title>PlotComponent</title>
<ellipse style="fill:none;stroke:black;" cx="682" cy="-306" rx="59.1762" ry="18"/>
<text text-anchor="middle" x="682" y="-301" style="font-family:Times New Roman;font-size:14.00;">PlotComponent</text>
</g>
<!-- AbstractOverlay -->
<g id="node2" class="node"><title>AbstractOverlay</title>
<ellipse style="fill:none;stroke:black;" cx="1241" cy="-234" rx="59.1762" ry="18"/>
<text text-anchor="middle" x="1241" y="-229" style="font-family:Times New Roman;font-size:14.00;">AbstractOverlay</text>
</g>
<!-- PlotComponent&#45;&#45;AbstractOverlay -->
<g id="edge2" class="edge"><title>PlotComponent&#45;&#45;AbstractOverlay</title>
<path style="fill:none;stroke:black;" d="M736,-299C843,-285 1080,-255 1187,-241"/>
</g>
<!-- BasePlotFrame -->
<g id="node9" class="node"><title>BasePlotFrame</title>
<ellipse style="fill:none;stroke:black;" cx="623" cy="-234" rx="57.1761" ry="18"/>
<text text-anchor="middle" x="623" y="-229" style="font-family:Times New Roman;font-size:14.00;">BasePlotFrame</text>
</g>
<!-- PlotComponent&#45;&#45;BasePlotFrame -->
<g id="edge138" class="edge"><title>PlotComponent&#45;&#45;BasePlotFrame</title>
<path style="fill:none;stroke:black;" d="M667,-288C658,-277 646,-263 637,-252"/>
</g>
<!-- AbstractPlotRenderer -->
<g id="node54" class="node"><title>AbstractPlotRenderer</title>
<ellipse style="fill:none;stroke:black;" cx="1859" cy="-234" rx="75.1777" ry="18"/>
<text text-anchor="middle" x="1859" y="-229" style="font-family:Times New Roman;font-size:14.00;">AbstractPlotRenderer</text>
</g>
<!-- PlotComponent&#45;&#45;AbstractPlotRenderer -->
<g id="edge46" class="edge"><title>PlotComponent&#45;&#45;AbstractPlotRenderer</title>
<path style="fill:none;stroke:black;" d="M740,-302C936,-290 1570,-252 1786,-238"/>
</g>
<!-- BasePlotContainer -->
<g id="node88" class="node"><title>BasePlotContainer</title>
<ellipse style="fill:none;stroke:black;" cx="396" cy="-234" rx="68.1777" ry="18"/>
<text text-anchor="middle" x="396" y="-229" style="font-family:Times New Roman;font-size:14.00;">BasePlotContainer</text>
</g>
<!-- PlotComponent&#45;&#45;BasePlotContainer -->
<g id="edge132" class="edge"><title>PlotComponent&#45;&#45;BasePlotContainer</title>
<path style="fill:none;stroke:black;" d="M638,-294C630,-292 622,-290 614,-288 557,-273 491,-257 446,-246"/>
</g>
<!-- PlotLabel -->
<g id="node7" class="node"><title>PlotLabel</title>
<ellipse style="fill:none;stroke:black;" cx="1129" cy="-162" rx="41.1755" ry="18"/>
<text text-anchor="middle" x="1129" y="-157" style="font-family:Times New Roman;font-size:14.00;">PlotLabel</text>
</g>
<!-- AbstractOverlay&#45;&#45;PlotLabel -->
<g id="edge6" class="edge"><title>AbstractOverlay&#45;&#45;PlotLabel</title>
<path style="fill:none;stroke:black;" d="M1216,-218C1197,-205 1171,-189 1153,-177"/>
</g>
<!-- LassoOverlay -->
<g id="node20" class="node"><title>LassoOverlay</title>
<ellipse style="fill:none;stroke:black;" cx="1241" cy="-162" rx="53.176" ry="18"/>
<text text-anchor="middle" x="1241" y="-157" style="font-family:Times New Roman;font-size:14.00;">LassoOverlay</text>
</g>
<!-- AbstractOverlay&#45;&#45;LassoOverlay -->
<g id="edge16" class="edge"><title>AbstractOverlay&#45;&#45;LassoOverlay</title>
<path style="fill:none;stroke:black;" d="M1241,-216C1241,-205 1241,-191 1241,-180"/>
</g>
<!-- PlotAxis -->
<g id="node42" class="node"><title>PlotAxis</title>
<ellipse style="fill:none;stroke:black;" cx="1350" cy="-162" rx="38.1754" ry="18"/>
<text text-anchor="middle" x="1350" y="-157" style="font-family:Times New Roman;font-size:14.00;">PlotAxis</text>
</g>
<!-- AbstractOverlay&#45;&#45;PlotAxis -->
<g id="edge32" class="edge"><title>AbstractOverlay&#45;&#45;PlotAxis</title>
<path style="fill:none;stroke:black;" d="M1266,-217C1284,-205 1310,-188 1328,-177"/>
</g>
<!-- Legend -->
<g id="node62" class="node"><title>Legend</title>
<ellipse style="fill:none;stroke:black;" cx="1441" cy="-162" rx="35.1752" ry="18"/>
<text text-anchor="middle" x="1441" y="-157" style="font-family:Times New Roman;font-size:14.00;">Legend</text>
</g>
<!-- AbstractOverlay&#45;&#45;Legend -->
<g id="edge54" class="edge"><title>AbstractOverlay&#45;&#45;Legend</title>
<path style="fill:none;stroke:black;" d="M1281,-221C1313,-210 1358,-194 1397,-180 1402,-178 1408,-176 1413,-173"/>
</g>
<!-- TextBoxOverlay -->
<g id="node70" class="node"><title>TextBoxOverlay</title>
<ellipse style="fill:none;stroke:black;" cx="1555" cy="-162" rx="61.1762" ry="18"/>
<text text-anchor="middle" x="1555" y="-157" style="font-family:Times New Roman;font-size:14.00;">TextBoxOverlay</text>
</g>
<!-- AbstractOverlay&#45;&#45;TextBoxOverlay -->
<g id="edge60" class="edge"><title>AbstractOverlay&#45;&#45;TextBoxOverlay</title>
<path style="fill:none;stroke:black;" d="M1289,-224C1339,-213 1417,-196 1485,-180 1493,-178 1501,-176 1509,-174"/>
</g>
<!-- ToolTip -->
<g id="node77" class="node"><title>ToolTip</title>
<ellipse style="fill:none;stroke:black;" cx="1671" cy="-162" rx="37.1777" ry="18"/>
<text text-anchor="middle" x="1671" y="-157" style="font-family:Times New Roman;font-size:14.00;">ToolTip</text>
</g>
<!-- AbstractOverlay&#45;&#45;ToolTip -->
<g id="edge68" class="edge"><title>AbstractOverlay&#45;&#45;ToolTip</title>
<path style="fill:none;stroke:black;" d="M1299,-230C1375,-224 1512,-209 1625,-180 1631,-178 1637,-176 1643,-174"/>
</g>
<!-- PlotGrid -->
<g id="node113" class="node"><title>PlotGrid</title>
<ellipse style="fill:none;stroke:black;" cx="809" cy="-162" rx="37.1753" ry="18"/>
<text text-anchor="middle" x="809" y="-157" style="font-family:Times New Roman;font-size:14.00;">PlotGrid</text>
</g>
<!-- AbstractOverlay&#45;&#45;PlotGrid -->
<g id="edge106" class="edge"><title>AbstractOverlay&#45;&#45;PlotGrid</title>
<path style="fill:none;stroke:black;" d="M1183,-230C1107,-224 970,-209 855,-180 849,-178 843,-176 837,-174"/>
</g>
<!-- ColormappedSelectionOverlay -->
<g id="node116" class="node"><title>ColormappedSelectionOverlay</title>
<ellipse style="fill:none;stroke:black;" cx="967" cy="-162" rx="103.178" ry="18"/>
<text text-anchor="middle" x="967" y="-157" style="font-family:Times New Roman;font-size:14.00;">ColormappedSelectionOverlay</text>
</g>
<!-- AbstractOverlay&#45;&#45;ColormappedSelectionOverlay -->
<g id="edge110" class="edge"><title>AbstractOverlay&#45;&#45;ColormappedSelectionOverlay</title>
<path style="fill:none;stroke:black;" d="M1196,-222C1149,-210 1075,-191 1024,-177"/>
</g>
<!-- AbstractMapper -->
<g id="node4" class="node"><title>AbstractMapper</title>
<ellipse style="fill:none;stroke:black;" cx="1107" cy="-450" rx="58.1762" ry="18"/>
<text text-anchor="middle" x="1107" y="-445" style="font-family:Times New Roman;font-size:14.00;">AbstractMapper</text>
</g>
<!-- Base1DMapper -->
<g id="node5" class="node"><title>Base1DMapper</title>
<ellipse style="fill:none;stroke:black;" cx="1108" cy="-378" rx="58.1762" ry="18"/>
<text text-anchor="middle" x="1108" y="-373" style="font-family:Times New Roman;font-size:14.00;">Base1DMapper</text>
</g>
<!-- AbstractMapper&#45;&#45;Base1DMapper -->
<g id="edge4" class="edge"><title>AbstractMapper&#45;&#45;Base1DMapper</title>
<path style="fill:none;stroke:black;" d="M1107,-432C1108,-421 1108,-407 1108,-396"/>
</g>
<!-- GridMapper -->
<g id="node72" class="node"><title>GridMapper</title>
<ellipse style="fill:none;stroke:black;" cx="985" cy="-378" rx="47.1758" ry="18"/>
<text text-anchor="middle" x="985" y="-373" style="font-family:Times New Roman;font-size:14.00;">GridMapper</text>
</g>
<!-- AbstractMapper&#45;&#45;GridMapper -->
<g id="edge62" class="edge"><title>AbstractMapper&#45;&#45;GridMapper</title>
<path style="fill:none;stroke:black;" d="M1080,-434C1059,-422 1031,-405 1011,-393"/>
</g>
<!-- LinearMapper -->
<g id="node15" class="node"><title>LinearMapper</title>
<ellipse style="fill:none;stroke:black;" cx="1167" cy="-306" rx="53.176" ry="18"/>
<text text-anchor="middle" x="1167" y="-301" style="font-family:Times New Roman;font-size:14.00;">LinearMapper</text>
</g>
<!-- Base1DMapper&#45;&#45;LinearMapper -->
<g id="edge12" class="edge"><title>Base1DMapper&#45;&#45;LinearMapper</title>
<path style="fill:none;stroke:black;" d="M1123,-360C1132,-349 1144,-335 1153,-324"/>
</g>
<!-- LogMapper -->
<g id="node103" class="node"><title>LogMapper</title>
<ellipse style="fill:none;stroke:black;" cx="1049" cy="-306" rx="47.1758" ry="18"/>
<text text-anchor="middle" x="1049" y="-301" style="font-family:Times New Roman;font-size:14.00;">LogMapper</text>
</g>
<!-- Base1DMapper&#45;&#45;LogMapper -->
<g id="edge92" class="edge"><title>Base1DMapper&#45;&#45;LogMapper</title>
<path style="fill:none;stroke:black;" d="M1093,-360C1084,-349 1072,-335 1063,-324"/>
</g>
<!-- CrossPlotFrame -->
<g id="node10" class="node"><title>CrossPlotFrame</title>
<ellipse style="fill:none;stroke:black;" cx="694" cy="-162" rx="60.1777" ry="18"/>
<text text-anchor="middle" x="694" y="-157" style="font-family:Times New Roman;font-size:14.00;">CrossPlotFrame</text>
</g>
<!-- BasePlotFrame&#45;&#45;CrossPlotFrame -->
<g id="edge8" class="edge"><title>BasePlotFrame&#45;&#45;CrossPlotFrame</title>
<path style="fill:none;stroke:black;" d="M640,-217C651,-205 665,-191 677,-179"/>
</g>
<!-- SimplePlotFrame -->
<g id="node44" class="node"><title>SimplePlotFrame</title>
<ellipse style="fill:none;stroke:black;" cx="553" cy="-162" rx="63.1763" ry="18"/>
<text text-anchor="middle" x="553" y="-157" style="font-family:Times New Roman;font-size:14.00;">SimplePlotFrame</text>
</g>
<!-- BasePlotFrame&#45;&#45;SimplePlotFrame -->
<g id="edge34" class="edge"><title>BasePlotFrame&#45;&#45;SimplePlotFrame</title>
<path style="fill:none;stroke:black;" d="M606,-217C595,-205 581,-191 570,-179"/>
</g>
<!-- AbstractTickGenerator -->
<g id="node12" class="node"><title>AbstractTickGenerator</title>
<ellipse style="fill:none;stroke:black;" cx="1261" cy="-450" rx="78.1777" ry="18"/>
<text text-anchor="middle" x="1261" y="-445" style="font-family:Times New Roman;font-size:14.00;">AbstractTickGenerator</text>
</g>
<!-- DefaultTickGenerator -->
<g id="node13" class="node"><title>DefaultTickGenerator</title>
<ellipse style="fill:none;stroke:black;" cx="1260" cy="-378" rx="76.1765" ry="18"/>
<text text-anchor="middle" x="1260" y="-373" style="font-family:Times New Roman;font-size:14.00;">DefaultTickGenerator</text>
</g>
<!-- AbstractTickGenerator&#45;&#45;DefaultTickGenerator -->
<g id="edge10" class="edge"><title>AbstractTickGenerator&#45;&#45;DefaultTickGenerator</title>
<path style="fill:none;stroke:black;" d="M1261,-432C1260,-421 1260,-407 1260,-396"/>
</g>
<!-- HasTraits -->
<g id="node17" class="node"><title>HasTraits</title>
<ellipse style="fill:none;stroke:black;" cx="1498" cy="-522" rx="41.1777" ry="18"/>
<text text-anchor="middle" x="1498" y="-517" style="font-family:Times New Roman;font-size:14.00;">HasTraits</text>
</g>
<!-- HasTraits&#45;&#45;AbstractMapper -->
<g id="edge40" class="edge"><title>HasTraits&#45;&#45;AbstractMapper</title>
<path style="fill:none;stroke:black;" d="M1459,-517C1398,-508 1276,-489 1174,-468 1166,-466 1158,-464 1150,-462"/>
</g>
<!-- HasTraits&#45;&#45;AbstractTickGenerator -->
<g id="edge36" class="edge"><title>HasTraits&#45;&#45;AbstractTickGenerator</title>
<path style="fill:none;stroke:black;" d="M1464,-512C1424,-500 1355,-479 1309,-464"/>
</g>
<!-- AbstractColormap -->
<g id="node18" class="node"><title>AbstractColormap</title>
<ellipse style="fill:none;stroke:black;" cx="1422" cy="-450" rx="65.1763" ry="18"/>
<text text-anchor="middle" x="1422" y="-445" style="font-family:Times New Roman;font-size:14.00;">AbstractColormap</text>
</g>
<!-- HasTraits&#45;&#45;AbstractColormap -->
<g id="edge14" class="edge"><title>HasTraits&#45;&#45;AbstractColormap</title>
<path style="fill:none;stroke:black;" d="M1481,-506C1469,-494 1453,-479 1440,-467"/>
</g>
<!-- AbstractDataSource -->
<g id="node28" class="node"><title>AbstractDataSource</title>
<ellipse style="fill:none;stroke:black;" cx="1575" cy="-450" rx="70.1777" ry="18"/>
<text text-anchor="middle" x="1575" y="-445" style="font-family:Times New Roman;font-size:14.00;">AbstractDataSource</text>
</g>
<!-- HasTraits&#45;&#45;AbstractDataSource -->
<g id="edge22" class="edge"><title>HasTraits&#45;&#45;AbstractDataSource</title>
<path style="fill:none;stroke:black;" d="M1515,-506C1527,-494 1544,-479 1556,-467"/>
</g>
<!-- Interactor -->
<g id="node36" class="node"><title>Interactor</title>
<ellipse style="fill:none;stroke:black;" cx="797" cy="-450" rx="40.1755" ry="18"/>
<text text-anchor="middle" x="797" y="-445" style="font-family:Times New Roman;font-size:14.00;">Interactor</text>
</g>
<!-- HasTraits&#45;&#45;Interactor -->
<g id="edge146" class="edge"><title>HasTraits&#45;&#45;Interactor</title>
<path style="fill:none;stroke:black;" d="M1458,-518C1334,-506 959,-467 836,-454"/>
</g>
<!-- CoordinateBox -->
<g id="node50" class="node"><title>CoordinateBox</title>
<ellipse style="fill:none;stroke:black;" cx="652" cy="-450" rx="58.1777" ry="18"/>
<text text-anchor="middle" x="652" y="-445" style="font-family:Times New Roman;font-size:14.00;">CoordinateBox</text>
</g>
<!-- HasTraits&#45;&#45;CoordinateBox -->
<g id="edge42" class="edge"><title>HasTraits&#45;&#45;CoordinateBox</title>
<path style="fill:none;stroke:black;" d="M1457,-521C1343,-516 1017,-502 748,-468 733,-466 716,-463 701,-460"/>
</g>
<!-- AbstractDataRange -->
<g id="node52" class="node"><title>AbstractDataRange</title>
<ellipse style="fill:none;stroke:black;" cx="1732" cy="-450" rx="69.1777" ry="18"/>
<text text-anchor="middle" x="1732" y="-445" style="font-family:Times New Roman;font-size:14.00;">AbstractDataRange</text>
</g>
<!-- HasTraits&#45;&#45;AbstractDataRange -->
<g id="edge124" class="edge"><title>HasTraits&#45;&#45;AbstractDataRange</title>
<path style="fill:none;stroke:black;" d="M1532,-512C1573,-499 1642,-478 1688,-464"/>
</g>
<!-- AbstractPlotData -->
<g id="node64" class="node"><title>AbstractPlotData</title>
<ellipse style="fill:none;stroke:black;" cx="1881" cy="-450" rx="62.1777" ry="18"/>
<text text-anchor="middle" x="1881" y="-445" style="font-family:Times New Roman;font-size:14.00;">AbstractPlotData</text>
</g>
<!-- HasTraits&#45;&#45;AbstractPlotData -->
<g id="edge112" class="edge"><title>HasTraits&#45;&#45;AbstractPlotData</title>
<path style="fill:none;stroke:black;" d="M1530,-511C1539,-508 1548,-506 1557,-504 1667,-479 1698,-489 1810,-468 1818,-466 1826,-464 1835,-462"/>
</g>
<!-- ColorMapTemplate -->
<g id="node75" class="node"><title>ColorMapTemplate</title>
<ellipse style="fill:none;stroke:black;" cx="2031" cy="-450" rx="70.1777" ry="18"/>
<text text-anchor="middle" x="2031" y="-445" style="font-family:Times New Roman;font-size:14.00;">ColorMapTemplate</text>
</g>
<!-- HasTraits&#45;&#45;ColorMapTemplate -->
<g id="edge66" class="edge"><title>HasTraits&#45;&#45;ColorMapTemplate</title>
<path style="fill:none;stroke:black;" d="M1530,-511C1539,-508 1548,-506 1557,-504 1729,-470 1777,-495 1952,-468 1961,-466 1971,-465 1980,-462"/>
</g>
<!-- Label -->
<g id="node109" class="node"><title>Label</title>
<ellipse style="fill:none;stroke:black;" cx="2148" cy="-450" rx="29.1747" ry="18"/>
<text text-anchor="middle" x="2148" y="-445" style="font-family:Times New Roman;font-size:14.00;">Label</text>
</g>
<!-- HasTraits&#45;&#45;Label -->
<g id="edge100" class="edge"><title>HasTraits&#45;&#45;Label</title>
<path style="fill:none;stroke:black;" d="M1530,-511C1539,-508 1548,-505 1557,-504 1799,-459 1871,-529 2110,-468 2115,-467 2121,-464 2126,-462"/>
</g>
<!-- ColorMapper -->
<g id="node47" class="node"><title>ColorMapper</title>
<ellipse style="fill:none;stroke:black;" cx="1406" cy="-378" rx="52.1777" ry="18"/>
<text text-anchor="middle" x="1406" y="-373" style="font-family:Times New Roman;font-size:14.00;">ColorMapper</text>
</g>
<!-- AbstractColormap&#45;&#45;ColorMapper -->
<g id="edge38" class="edge"><title>AbstractColormap&#45;&#45;ColorMapper</title>
<path style="fill:none;stroke:black;" d="M1418,-432C1415,-421 1412,-407 1410,-396"/>
</g>
<!-- BaseXYPlot -->
<g id="node22" class="node"><title>BaseXYPlot</title>
<ellipse style="fill:none;stroke:black;" cx="1962" cy="-162" rx="50.1777" ry="18"/>
<text text-anchor="middle" x="1962" y="-157" style="font-family:Times New Roman;font-size:14.00;">BaseXYPlot</text>
</g>
<!-- LinePlot -->
<g id="node23" class="node"><title>LinePlot</title>
<ellipse style="fill:none;stroke:black;" cx="1925" cy="-90" rx="38.1754" ry="18"/>
<text text-anchor="middle" x="1925" y="-85" style="font-family:Times New Roman;font-size:14.00;">LinePlot</text>
</g>
<!-- BaseXYPlot&#45;&#45;LinePlot -->
<g id="edge18" class="edge"><title>BaseXYPlot&#45;&#45;LinePlot</title>
<path style="fill:none;stroke:black;" d="M1953,-144C1947,-133 1940,-119 1934,-108"/>
</g>
<!-- ScatterPlot -->
<g id="node119" class="node"><title>ScatterPlot</title>
<ellipse style="fill:none;stroke:black;" cx="2025" cy="-90" rx="44.1757" ry="18"/>
<text text-anchor="middle" x="2025" y="-85" style="font-family:Times New Roman;font-size:14.00;">ScatterPlot</text>
</g>
<!-- BaseXYPlot&#45;&#45;ScatterPlot -->
<g id="edge114" class="edge"><title>BaseXYPlot&#45;&#45;ScatterPlot</title>
<path style="fill:none;stroke:black;" d="M1977,-145C1987,-133 2000,-119 2010,-107"/>
</g>
<!-- PolygonPlot -->
<g id="node126" class="node"><title>PolygonPlot</title>
<ellipse style="fill:none;stroke:black;" cx="1819" cy="-90" rx="50.1777" ry="18"/>
<text text-anchor="middle" x="1819" y="-85" style="font-family:Times New Roman;font-size:14.00;">PolygonPlot</text>
</g>
<!-- BaseXYPlot&#45;&#45;PolygonPlot -->
<g id="edge122" class="edge"><title>BaseXYPlot&#45;&#45;PolygonPlot</title>
<path style="fill:none;stroke:black;" d="M1933,-147C1908,-135 1873,-117 1848,-105"/>
</g>
<!-- ErrorBarPlot -->
<g id="node140" class="node"><title>ErrorBarPlot</title>
<ellipse style="fill:none;stroke:black;" cx="1900" cy="-18" rx="49.1759" ry="18"/>
<text text-anchor="middle" x="1900" y="-13" style="font-family:Times New Roman;font-size:14.00;">ErrorBarPlot</text>
</g>
<!-- LinePlot&#45;&#45;ErrorBarPlot -->
<g id="edge142" class="edge"><title>LinePlot&#45;&#45;ErrorBarPlot</title>
<path style="fill:none;stroke:black;" d="M1919,-72C1915,-61 1910,-47 1906,-36"/>
</g>
<!-- ImagePlot -->
<g id="node25" class="node"><title>ImagePlot</title>
<ellipse style="fill:none;stroke:black;" cx="2272" cy="-90" rx="43.1756" ry="18"/>
<text text-anchor="middle" x="2272" y="-85" style="font-family:Times New Roman;font-size:14.00;">ImagePlot</text>
</g>
<!-- CMapImagePlot -->
<g id="node26" class="node"><title>CMapImagePlot</title>
<ellipse style="fill:none;stroke:black;" cx="2272" cy="-18" rx="61.1762" ry="18"/>
<text text-anchor="middle" x="2272" y="-13" style="font-family:Times New Roman;font-size:14.00;">CMapImagePlot</text>
</g>
<!-- ImagePlot&#45;&#45;CMapImagePlot -->
<g id="edge20" class="edge"><title>ImagePlot&#45;&#45;CMapImagePlot</title>
<path style="fill:none;stroke:black;" d="M2272,-72C2272,-61 2272,-47 2272,-36"/>
</g>
<!-- ArrayDataSource -->
<g id="node82" class="node"><title>ArrayDataSource</title>
<ellipse style="fill:none;stroke:black;" cx="1674" cy="-378" rx="62.1777" ry="18"/>
<text text-anchor="middle" x="1674" y="-373" style="font-family:Times New Roman;font-size:14.00;">ArrayDataSource</text>
</g>
<!-- AbstractDataSource&#45;&#45;ArrayDataSource -->
<g id="edge72" class="edge"><title>AbstractDataSource&#45;&#45;ArrayDataSource</title>
<path style="fill:none;stroke:black;" d="M1598,-433C1614,-422 1635,-406 1651,-395"/>
</g>
<!-- MultiArrayDataSource -->
<g id="node86" class="node"><title>MultiArrayDataSource</title>
<ellipse style="fill:none;stroke:black;" cx="1832" cy="-378" rx="78.1777" ry="18"/>
<text text-anchor="middle" x="1832" y="-373" style="font-family:Times New Roman;font-size:14.00;">MultiArrayDataSource</text>
</g>
<!-- AbstractDataSource&#45;&#45;MultiArrayDataSource -->
<g id="edge76" class="edge"><title>AbstractDataSource&#45;&#45;MultiArrayDataSource</title>
<path style="fill:none;stroke:black;" d="M1622,-437C1668,-424 1736,-405 1782,-392"/>
</g>
<!-- ImageData -->
<g id="node101" class="node"><title>ImageData</title>
<ellipse style="fill:none;stroke:black;" cx="1973" cy="-378" rx="45.1777" ry="18"/>
<text text-anchor="middle" x="1973" y="-373" style="font-family:Times New Roman;font-size:14.00;">ImageData</text>
</g>
<!-- AbstractDataSource&#45;&#45;ImageData -->
<g id="edge90" class="edge"><title>AbstractDataSource&#45;&#45;ImageData</title>
<path style="fill:none;stroke:black;" d="M1626,-438C1635,-435 1645,-434 1654,-432 1770,-410 1803,-422 1919,-396 1926,-394 1933,-392 1939,-390"/>
</g>
<!-- GridDataSource -->
<g id="node145" class="node"><title>GridDataSource</title>
<ellipse style="fill:none;stroke:black;" cx="1535" cy="-378" rx="59.1777" ry="18"/>
<text text-anchor="middle" x="1535" y="-373" style="font-family:Times New Roman;font-size:14.00;">GridDataSource</text>
</g>
<!-- AbstractDataSource&#45;&#45;GridDataSource -->
<g id="edge148" class="edge"><title>AbstractDataSource&#45;&#45;GridDataSource</title>
<path style="fill:none;stroke:black;" d="M1565,-432C1559,-421 1551,-407 1545,-396"/>
</g>
<!-- Component -->
<g id="node30" class="node"><title>Component</title>
<ellipse style="fill:none;stroke:black;" cx="623" cy="-378" rx="47.1758" ry="18"/>
<text text-anchor="middle" x="623" y="-373" style="font-family:Times New Roman;font-size:14.00;">Component</text>
</g>
<!-- Component&#45;&#45;PlotComponent -->
<g id="edge98" class="edge"><title>Component&#45;&#45;PlotComponent</title>
<path style="fill:none;stroke:black;" d="M637,-361C646,-349 658,-335 668,-323"/>
</g>
<!-- Container -->
<g id="node31" class="node"><title>Container</title>
<ellipse style="fill:none;stroke:black;" cx="564" cy="-306" rx="41.1755" ry="18"/>
<text text-anchor="middle" x="564" y="-301" style="font-family:Times New Roman;font-size:14.00;">Container</text>
</g>
<!-- Component&#45;&#45;Container -->
<g id="edge24" class="edge"><title>Component&#45;&#45;Container</title>
<path style="fill:none;stroke:black;" d="M609,-361C599,-349 587,-335 578,-323"/>
</g>
<!-- Container&#45;&#45;BasePlotFrame -->
<g id="edge136" class="edge"><title>Container&#45;&#45;BasePlotFrame</title>
<path style="fill:none;stroke:black;" d="M578,-289C587,-278 599,-263 609,-252"/>
</g>
<!-- Container&#45;&#45;BasePlotContainer -->
<g id="edge134" class="edge"><title>Container&#45;&#45;BasePlotContainer</title>
<path style="fill:none;stroke:black;" d="M534,-293C505,-281 462,-263 432,-249"/>
</g>
<!-- StackedPlotContainer -->
<g id="node33" class="node"><title>StackedPlotContainer</title>
<ellipse style="fill:none;stroke:black;" cx="226" cy="-162" rx="76.1777" ry="18"/>
<text text-anchor="middle" x="226" y="-157" style="font-family:Times New Roman;font-size:14.00;">StackedPlotContainer</text>
</g>
<!-- HPlotContainer -->
<g id="node34" class="node"><title>HPlotContainer</title>
<ellipse style="fill:none;stroke:black;" cx="104" cy="-90" rx="59.1777" ry="18"/>
<text text-anchor="middle" x="104" y="-85" style="font-family:Times New Roman;font-size:14.00;">HPlotContainer</text>
</g>
<!-- StackedPlotContainer&#45;&#45;HPlotContainer -->
<g id="edge26" class="edge"><title>StackedPlotContainer&#45;&#45;HPlotContainer</title>
<path style="fill:none;stroke:black;" d="M197,-145C177,-133 151,-118 131,-106"/>
</g>
<!-- VPlotContainer -->
<g id="node60" class="node"><title>VPlotContainer</title>
<ellipse style="fill:none;stroke:black;" cx="239" cy="-90" rx="58.1762" ry="18"/>
<text text-anchor="middle" x="239" y="-85" style="font-family:Times New Roman;font-size:14.00;">VPlotContainer</text>
</g>
<!-- StackedPlotContainer&#45;&#45;VPlotContainer -->
<g id="edge52" class="edge"><title>StackedPlotContainer&#45;&#45;VPlotContainer</title>
<path style="fill:none;stroke:black;" d="M229,-144C231,-133 234,-119 236,-108"/>
</g>
<!-- Interactor&#45;&#45;Component -->
<g id="edge104" class="edge"><title>Interactor&#45;&#45;Component</title>
<path style="fill:none;stroke:black;" d="M767,-438C736,-425 687,-404 655,-391"/>
</g>
<!-- AbstractController -->
<g id="node37" class="node"><title>AbstractController</title>
<ellipse style="fill:none;stroke:black;" cx="854" cy="-378" rx="66.1763" ry="18"/>
<text text-anchor="middle" x="854" y="-373" style="font-family:Times New Roman;font-size:14.00;">AbstractController</text>
</g>
<!-- Interactor&#45;&#45;AbstractController -->
<g id="edge28" class="edge"><title>Interactor&#45;&#45;AbstractController</title>
<path style="fill:none;stroke:black;" d="M811,-433C819,-422 831,-407 840,-396"/>
</g>
<!-- BaseTool -->
<g id="node56" class="node"><title>BaseTool</title>
<ellipse style="fill:none;stroke:black;" cx="729" cy="-378" rx="41.1755" ry="18"/>
<text text-anchor="middle" x="729" y="-373" style="font-family:Times New Roman;font-size:14.00;">BaseTool</text>
</g>
<!-- Interactor&#45;&#45;BaseTool -->
<g id="edge48" class="edge"><title>Interactor&#45;&#45;BaseTool</title>
<path style="fill:none;stroke:black;" d="M781,-433C770,-422 756,-407 745,-395"/>
</g>
<!-- BaseDataRange -->
<g id="node39" class="node"><title>BaseDataRange</title>
<ellipse style="fill:none;stroke:black;" cx="2096" cy="-378" rx="60.1777" ry="18"/>
<text text-anchor="middle" x="2096" y="-373" style="font-family:Times New Roman;font-size:14.00;">BaseDataRange</text>
</g>
<!-- DataRange1D -->
<g id="node40" class="node"><title>DataRange1D</title>
<ellipse style="fill:none;stroke:black;" cx="2159" cy="-306" rx="54.176" ry="18"/>
<text text-anchor="middle" x="2159" y="-301" style="font-family:Times New Roman;font-size:14.00;">DataRange1D</text>
</g>
<!-- BaseDataRange&#45;&#45;DataRange1D -->
<g id="edge30" class="edge"><title>BaseDataRange&#45;&#45;DataRange1D</title>
<path style="fill:none;stroke:black;" d="M2111,-361C2121,-349 2134,-335 2144,-323"/>
</g>
<!-- DataRange2D -->
<g id="node105" class="node"><title>DataRange2D</title>
<ellipse style="fill:none;stroke:black;" cx="2033" cy="-306" rx="54.176" ry="18"/>
<text text-anchor="middle" x="2033" y="-301" style="font-family:Times New Roman;font-size:14.00;">DataRange2D</text>
</g>
<!-- BaseDataRange&#45;&#45;DataRange2D -->
<g id="edge94" class="edge"><title>BaseDataRange&#45;&#45;DataRange2D</title>
<path style="fill:none;stroke:black;" d="M2081,-361C2071,-349 2058,-335 2048,-323"/>
</g>
<!-- LabelAxis -->
<g id="node92" class="node"><title>LabelAxis</title>
<ellipse style="fill:none;stroke:black;" cx="1350" cy="-90" rx="43.1777" ry="18"/>
<text text-anchor="middle" x="1350" y="-85" style="font-family:Times New Roman;font-size:14.00;">LabelAxis</text>
</g>
<!-- PlotAxis&#45;&#45;LabelAxis -->
<g id="edge82" class="edge"><title>PlotAxis&#45;&#45;LabelAxis</title>
<path style="fill:none;stroke:black;" d="M1350,-144C1350,-133 1350,-119 1350,-108"/>
</g>
<!-- CoordinateBox&#45;&#45;Component -->
<g id="edge102" class="edge"><title>CoordinateBox&#45;&#45;Component</title>
<path style="fill:none;stroke:black;" d="M645,-432C640,-421 635,-407 630,-396"/>
</g>
<!-- AbstractDataRange&#45;&#45;BaseDataRange -->
<g id="edge44" class="edge"><title>AbstractDataRange&#45;&#45;BaseDataRange</title>
<path style="fill:none;stroke:black;" d="M1782,-438C1791,-435 1801,-434 1810,-432 1905,-412 1931,-416 2027,-396 2035,-394 2043,-392 2051,-390"/>
</g>
<!-- AbstractPlotRenderer&#45;&#45;BaseXYPlot -->
<g id="edge128" class="edge"><title>AbstractPlotRenderer&#45;&#45;BaseXYPlot</title>
<path style="fill:none;stroke:black;" d="M1883,-217C1900,-205 1923,-190 1939,-178"/>
</g>
<!-- Base2DPlot -->
<g id="node58" class="node"><title>Base2DPlot</title>
<ellipse style="fill:none;stroke:black;" cx="2210" cy="-162" rx="48.1758" ry="18"/>
<text text-anchor="middle" x="2210" y="-157" style="font-family:Times New Roman;font-size:14.00;">Base2DPlot</text>
</g>
<!-- AbstractPlotRenderer&#45;&#45;Base2DPlot -->
<g id="edge64" class="edge"><title>AbstractPlotRenderer&#45;&#45;Base2DPlot</title>
<path style="fill:none;stroke:black;" d="M1916,-222C1987,-208 2105,-184 2168,-171"/>
</g>
<!-- ColorBar -->
<g id="node84" class="node"><title>ColorBar</title>
<ellipse style="fill:none;stroke:black;" cx="1766" cy="-162" rx="40.1777" ry="18"/>
<text text-anchor="middle" x="1766" y="-157" style="font-family:Times New Roman;font-size:14.00;">ColorBar</text>
</g>
<!-- AbstractPlotRenderer&#45;&#45;ColorBar -->
<g id="edge74" class="edge"><title>AbstractPlotRenderer&#45;&#45;ColorBar</title>
<path style="fill:none;stroke:black;" d="M1836,-217C1821,-205 1801,-189 1786,-178"/>
</g>
<!-- BarPlot -->
<g id="node99" class="node"><title>BarPlot</title>
<ellipse style="fill:none;stroke:black;" cx="1859" cy="-162" rx="35.1777" ry="18"/>
<text text-anchor="middle" x="1859" y="-157" style="font-family:Times New Roman;font-size:14.00;">BarPlot</text>
</g>
<!-- AbstractPlotRenderer&#45;&#45;BarPlot -->
<g id="edge88" class="edge"><title>AbstractPlotRenderer&#45;&#45;BarPlot</title>
<path style="fill:none;stroke:black;" d="M1859,-216C1859,-205 1859,-191 1859,-180"/>
</g>
<!-- Base2DPlot&#45;&#45;ImagePlot -->
<g id="edge50" class="edge"><title>Base2DPlot&#45;&#45;ImagePlot</title>
<path style="fill:none;stroke:black;" d="M2225,-145C2235,-133 2247,-119 2257,-107"/>
</g>
<!-- ContourLinePlot -->
<g id="node122" class="node"><title>ContourLinePlot</title>
<ellipse style="fill:none;stroke:black;" cx="2395" cy="-90" rx="62.1762" ry="18"/>
<text text-anchor="middle" x="2395" y="-85" style="font-family:Times New Roman;font-size:14.00;">ContourLinePlot</text>
</g>
<!-- Base2DPlot&#45;&#45;ContourLinePlot -->
<g id="edge118" class="edge"><title>Base2DPlot&#45;&#45;ContourLinePlot</title>
<path style="fill:none;stroke:black;" d="M2244,-149C2276,-136 2324,-117 2358,-104"/>
</g>
<!-- ContourPolyPlot -->
<g id="node132" class="node"><title>ContourPolyPlot</title>
<ellipse style="fill:none;stroke:black;" cx="2149" cy="-90" rx="62.1762" ry="18"/>
<text text-anchor="middle" x="2149" y="-85" style="font-family:Times New Roman;font-size:14.00;">ContourPolyPlot</text>
</g>
<!-- Base2DPlot&#45;&#45;ContourPolyPlot -->
<g id="edge130" class="edge"><title>Base2DPlot&#45;&#45;ContourPolyPlot</title>
<path style="fill:none;stroke:black;" d="M2195,-145C2186,-133 2173,-119 2164,-108"/>
</g>
<!-- ArrayPlotData -->
<g id="node65" class="node"><title>ArrayPlotData</title>
<ellipse style="fill:none;stroke:black;" cx="2228" cy="-378" rx="54.1777" ry="18"/>
<text text-anchor="middle" x="2228" y="-373" style="font-family:Times New Roman;font-size:14.00;">ArrayPlotData</text>
</g>
<!-- AbstractPlotData&#45;&#45;ArrayPlotData -->
<g id="edge56" class="edge"><title>AbstractPlotData&#45;&#45;ArrayPlotData</title>
<path style="fill:none;stroke:black;" d="M1926,-438C1935,-436 1944,-434 1952,-432 2045,-412 2071,-417 2165,-396 2172,-394 2180,-392 2187,-390"/>
</g>
<!-- OverlayPlotContainer -->
<g id="node67" class="node"><title>OverlayPlotContainer</title>
<ellipse style="fill:none;stroke:black;" cx="396" cy="-162" rx="76.1765" ry="18"/>
<text text-anchor="middle" x="396" y="-157" style="font-family:Times New Roman;font-size:14.00;">OverlayPlotContainer</text>
</g>
<!-- DataView -->
<g id="node68" class="node"><title>DataView</title>
<ellipse style="fill:none;stroke:black;" cx="370" cy="-90" rx="42.1777" ry="18"/>
<text text-anchor="middle" x="370" y="-85" style="font-family:Times New Roman;font-size:14.00;">DataView</text>
</g>
<!-- OverlayPlotContainer&#45;&#45;DataView -->
<g id="edge58" class="edge"><title>OverlayPlotContainer&#45;&#45;DataView</title>
<path style="fill:none;stroke:black;" d="M389,-144C385,-133 380,-119 377,-108"/>
</g>
<!-- SelectableOverlayPlotContainer -->
<g id="node138" class="node"><title>SelectableOverlayPlotContainer</title>
<ellipse style="fill:none;stroke:black;" cx="536" cy="-90" rx="106.177" ry="18"/>
<text text-anchor="middle" x="536" y="-85" style="font-family:Times New Roman;font-size:14.00;">SelectableOverlayPlotContainer</text>
</g>
<!-- OverlayPlotContainer&#45;&#45;SelectableOverlayPlotContainer -->
<g id="edge140" class="edge"><title>OverlayPlotContainer&#45;&#45;SelectableOverlayPlotContainer</title>
<path style="fill:none;stroke:black;" d="M428,-145C450,-134 479,-119 502,-107"/>
</g>
<!-- Plot -->
<g id="node90" class="node"><title>Plot</title>
<ellipse style="fill:none;stroke:black;" cx="370" cy="-18" rx="27" ry="18"/>
<text text-anchor="middle" x="370" y="-13" style="font-family:Times New Roman;font-size:14.00;">Plot</text>
</g>
<!-- DataView&#45;&#45;Plot -->
<g id="edge80" class="edge"><title>DataView&#45;&#45;Plot</title>
<path style="fill:none;stroke:black;" d="M370,-72C370,-61 370,-47 370,-36"/>
</g>
<!-- DataLabel -->
<g id="node142" class="node"><title>DataLabel</title>
<ellipse style="fill:none;stroke:black;" cx="1671" cy="-90" rx="43.1777" ry="18"/>
<text text-anchor="middle" x="1671" y="-85" style="font-family:Times New Roman;font-size:14.00;">DataLabel</text>
</g>
<!-- ToolTip&#45;&#45;DataLabel -->
<g id="edge144" class="edge"><title>ToolTip&#45;&#45;DataLabel</title>
<path style="fill:none;stroke:black;" d="M1671,-144C1671,-133 1671,-119 1671,-108"/>
</g>
<!-- object -->
<g id="node79" class="node"><title>object</title>
<ellipse style="fill:none;stroke:black;" cx="1568" cy="-666" rx="31.1777" ry="18"/>
<text text-anchor="middle" x="1568" y="-661" style="font-family:Times New Roman;font-size:14.00;">object</text>
</g>
<!-- CHasTraits -->
<g id="node80" class="node"><title>CHasTraits</title>
<ellipse style="fill:none;stroke:black;" cx="1498" cy="-594" rx="46.1777" ry="18"/>
<text text-anchor="middle" x="1498" y="-589" style="font-family:Times New Roman;font-size:14.00;">CHasTraits</text>
</g>
<!-- object&#45;&#45;CHasTraits -->
<g id="edge70" class="edge"><title>object&#45;&#45;CHasTraits</title>
<path style="fill:none;stroke:black;" d="M1552,-650C1541,-639 1526,-623 1514,-611"/>
</g>
<!-- GraphicsContextArray -->
<g id="node96" class="node"><title>GraphicsContextArray</title>
<ellipse style="fill:none;stroke:black;" cx="1639" cy="-594" rx="77.1777" ry="18"/>
<text text-anchor="middle" x="1639" y="-589" style="font-family:Times New Roman;font-size:14.00;">GraphicsContextArray</text>
</g>
<!-- object&#45;&#45;GraphicsContextArray -->
<g id="edge96" class="edge"><title>object&#45;&#45;GraphicsContextArray</title>
<path style="fill:none;stroke:black;" d="M1583,-650C1594,-639 1609,-624 1621,-612"/>
</g>
<!-- CHasTraits&#45;&#45;HasTraits -->
<g id="edge116" class="edge"><title>CHasTraits&#45;&#45;HasTraits</title>
<path style="fill:none;stroke:black;" d="M1498,-576C1498,-565 1498,-551 1498,-540"/>
</g>
<!-- PointDataSource -->
<g id="node129" class="node"><title>PointDataSource</title>
<ellipse style="fill:none;stroke:black;" cx="1674" cy="-306" rx="62.1777" ry="18"/>
<text text-anchor="middle" x="1674" y="-301" style="font-family:Times New Roman;font-size:14.00;">PointDataSource</text>
</g>
<!-- ArrayDataSource&#45;&#45;PointDataSource -->
<g id="edge126" class="edge"><title>ArrayDataSource&#45;&#45;PointDataSource</title>
<path style="fill:none;stroke:black;" d="M1674,-360C1674,-349 1674,-335 1674,-324"/>
</g>
<!-- BasePlotContainer&#45;&#45;StackedPlotContainer -->
<g id="edge78" class="edge"><title>BasePlotContainer&#45;&#45;StackedPlotContainer</title>
<path style="fill:none;stroke:black;" d="M360,-219C331,-207 292,-190 263,-178"/>
</g>
<!-- BasePlotContainer&#45;&#45;OverlayPlotContainer -->
<g id="edge108" class="edge"><title>BasePlotContainer&#45;&#45;OverlayPlotContainer</title>
<path style="fill:none;stroke:black;" d="M396,-216C396,-205 396,-191 396,-180"/>
</g>
<!-- GridPlotContainer -->
<g id="node94" class="node"><title>GridPlotContainer</title>
<ellipse style="fill:none;stroke:black;" cx="66" cy="-162" rx="66.1777" ry="18"/>
<text text-anchor="middle" x="66" y="-157" style="font-family:Times New Roman;font-size:14.00;">GridPlotContainer</text>
</g>
<!-- BasePlotContainer&#45;&#45;GridPlotContainer -->
<g id="edge84" class="edge"><title>BasePlotContainer&#45;&#45;GridPlotContainer</title>
<path style="fill:none;stroke:black;" d="M342,-223C291,-212 211,-195 141,-180 133,-178 124,-176 116,-174"/>
</g>
<!-- PlotGraphicsContext -->
<g id="node97" class="node"><title>PlotGraphicsContext</title>
<ellipse style="fill:none;stroke:black;" cx="1639" cy="-522" rx="73.1765" ry="18"/>
<text text-anchor="middle" x="1639" y="-517" style="font-family:Times New Roman;font-size:14.00;">PlotGraphicsContext</text>
</g>
<!-- GraphicsContextArray&#45;&#45;PlotGraphicsContext -->
<g id="edge86" class="edge"><title>GraphicsContextArray&#45;&#45;PlotGraphicsContext</title>
<path style="fill:none;stroke:black;" d="M1639,-576C1639,-565 1639,-551 1639,-540"/>
</g>
<!-- ColormappedScatterPlot -->
<g id="node124" class="node"><title>ColormappedScatterPlot</title>
<ellipse style="fill:none;stroke:black;" cx="2051" cy="-18" rx="84.1777" ry="18"/>
<text text-anchor="middle" x="2051" y="-13" style="font-family:Times New Roman;font-size:14.00;">ColormappedScatterPlot</text>
</g>
<!-- ScatterPlot&#45;&#45;ColormappedScatterPlot -->
<g id="edge120" class="edge"><title>ScatterPlot&#45;&#45;ColormappedScatterPlot</title>
<path style="fill:none;stroke:black;" d="M2032,-72C2036,-61 2041,-47 2044,-36"/>
</g>
</g>
</svg>
